Fungal-Grow 800 Thickness 0.ufo
<glyph name="period" format="1">
  <advance width="651"/>
  <unicode hex="002E"/>
  <outline>
    <contour>
      <point x="219" y="254" type="line"/>
      <point x="430" y="254" type="line"/>
      <point x="430" y="0" type="line"/>
      <point x="219" y="0" type="line"/>
    </contour>
    <component base="blob1" xScale="1.2886" yScale="-1.2886" xOffset="653" yOffset="147"/>
    <component base="blob2" yScale="-1" xOffset="1067" yOffset="391"/>
    <component base="blob3" yScale="-1" xOffset="1492" yOffset="264"/>
    <component base="blob4" xScale="0.6152" yScale="-0.6152" xOffset="1816" yOffset="445"/>
    <component base="blob5" yScale="-1" xOffset="2141" yOffset="617"/>
    <component base="blob6" xScale="1.1539" yScale="-1.1539" xOffset="2496" yOffset="999"/>
    <component base="blob7" xScale="0.5898" yScale="-0.5898" xOffset="2546" yOffset="1364"/>
    <component base="blob8" xScale="0.7047" yScale="-0.7047" xOffset="2380" yOffset="1636"/>
    <component base="blob9" xScale="0.4869" yScale="-0.4869" xOffset="2258" yOffset="1896"/>
  </outline>
</glyph>
<glyph name="m" format="1">
  <advance width="1995"/>
  <unicode hex="006D"/>
  <outline>
    <contour>
      <point x="1065" y="905" type="curve"/>
      <point x="1065" y="905" type="line"/>
      <point x="1157" y="1070.333"/>
      <point x="1282.667" y="1147"/>
      <point x="1456" y="1147" type="curve" smooth="yes"/>
      <point x="1689.333" y="1147"/>
      <point x="1821" y="977.333"/>
      <point x="1821" y="676" type="curve" smooth="yes"/>
      <point x="1821" y="0" type="line"/>
      <point x="1636" y="0" type="line"/>
      <point x="1636" y="670" type="line" smooth="yes"/>
      <point x="1636" y="884.667"/>
      <point x="1561" y="987"/>
      <point x="1405" y="987" type="curve" smooth="yes"/>
      <point x="1214.333" y="987"/>
      <point x="1096" y="851.667"/>
      <point x="1096" y="633" type="curve" smooth="yes"/>
      <point x="1096" y="0" type="line"/>
      <point x="911" y="0" type="line"/>
      <point x="911" y="670" type="line" smooth="yes"/>
      <point x="911" y="886"/>
      <point x="836.667" y="987"/>
      <point x="678" y="987" type="curve" smooth="yes"/>
      <point x="490" y="987"/>
      <point x="371" y="850.333"/>
      <point x="371" y="633" type="curve" smooth="yes"/>
      <point x="371" y="0" type="line"/>
      <point x="186" y="0" type="line"/>
      <point x="186" y="1120" type="line"/>
      <point x="371" y="1120" type="line"/>
      <point x="371" y="946" type="line"/>
      <point x="455" y="1083.333"/>
      <point x="569.667" y="1147"/>
      <point x="731" y="1147" type="curve" smooth="yes"/>
      <point x="893.667" y="1147"/>
      <point x="1010.333" y="1062.333"/>
    </contour>
    <component base="blob1" xScale="-1.2886" yScale="-1.2886" xOffset="1033" yOffset="-171"/>
    <component base="blob2" xScale="-1" yScale="-1" xOffset="923" yOffset="-417"/>
    <component base="blob3" xScale="-1" yScale="-1" xOffset="1083" yOffset="-677"/>
    <component base="blob4" xScale="-0.8168" yScale="-0.8168" xOffset="1197" yOffset="-950"/>
    <component base="blob5" xScale="-1" yScale="-1" xOffset="1101" yOffset="-1242"/>
    <component base="blob6" xScale="-0.8993" yScale="-0.8993" xOffset="913" yOffset="-1501"/>
    <component base="blob7" xScale="-1.0017" yScale="-1.0017" xOffset="729" yOffset="-1783"/>
    <component base="blob8" xScale="-0.7047" yScale="-0.7047" xOffset="768" yOffset="-2088"/>
    <component base="blob9" xScale="-0.4869" yScale="-0.4869" xOffset="877" yOffset="-2270"/>
    <component base="blob6" xScale="-0.6653" yScale="-0.6653" xOffset="1311" yOffset="-1365"/>
    <component base="blob7" xScale="-0.5954" yScale="-0.5954" xOffset="1439" yOffset="-1527"/>
    <component base="blob8" xScale="-0.3744" yScale="-0.3744" xOffset="1472" yOffset="-1669"/>
    <component base="blob9" xScale="-0.4869" yScale="-0.4869" xOffset="1460" yOffset="-1819"/>
    <component base="blob2" xScale="-1" yScale="-1" xOffset="1196" yOffset="627"/>
    <component base="blob3" xScale="-1" yScale="-1" xOffset="1457" yOffset="899"/>
    <component base="blob4" xScale="-0.8168" yScale="-0.8168" xOffset="1815" yOffset="890"/>
    <component base="blob5" xScale="-1" yScale="-1" xOffset="2145" yOffset="1147"/>
    <component base="blob6" xScale="-0.8993" yScale="-0.8993" xOffset="2401" yOffset="1030"/>
    <component base="blob7" xScale="-1.0017" yScale="-1.0017" xOffset="2633" yOffset="694"/>
    <component base="blob8" xScale="-0.7047" yScale="-0.7047" xOffset="2965" yOffset="544"/>
    <component base="blob9" xScale="-0.4869" yScale="-0.4869" xOffset="3215" yOffset="466"/>
    <component base="blob3" xScale="-0.6929" yScale="-0.6929" xOffset="858" yOffset="598"/>
    <component base="blob4" xScale="-0.8168" yScale="-0.8168" xOffset="659" yOffset="377"/>
    <component base="blob5" xScale="-0.7626" yScale="-0.7626" xOffset="387" yOffset="460"/>
    <component base="blob6" xScale="-0.8993" yScale="-0.8993" xOffset="221" yOffset="706"/>
    <component base="blob7" xScale="-1.0017" yScale="-1.0017" xOffset="207" yOffset="1056"/>
    <component base="blob8" xScale="-0.7047" yScale="-0.7047" xOffset="423" yOffset="1382"/>
    <component base="blob9" xScale="-0.4869" yScale="-0.4869" xOffset="626" yOffset="1435"/>
    <contour>
      <point x="1001" y="1147" type="move" name="above"/>
    </contour>
    <contour>
      <point x="1001" y="0" type="move" name="below"/>
    </contour>
    <contour>
      <point x="278" y="0" type="move" name="cedilla"/>
    </contour>
    <contour>
      <point x="0" y="1520" type="move" name="half"/>
    </contour>
  </outline>
</glyph>
<glyph name="longs" format="1">
  <advance width="721"/>
  <unicode hex="017F"/>
  <outline>
    <contour>
      <point x="408" y="0" type="line"/>
      <point x="223" y="0" type="line"/>
      <point x="223" y="977" type="line"/>
      <point x="47" y="977" type="line"/>
      <point x="47" y="1120" type="line"/>
      <point x="223" y="1120" type="line"/>
      <point x="223" y="1198" type="line" smooth="yes"/>
      <point x="223" y="1385"/>
      <point x="397" y="1556"/>
      <point x="586" y="1556" type="qcurve" smooth="yes"/>
      <point x="760" y="1556" type="line"/>
      <point x="760" y="1403" type="line"/>
      <point x="584" y="1403" type="line" smooth="yes"/>
      <point x="485" y="1403"/>
      <point x="446.5" y="1363" type="qcurve" smooth="yes"/>
      <point x="408" y="1321.93"/>
      <point x="408" y="1219" type="qcurve" smooth="yes"/>
    </contour>
    <contour>
      <point x="480" y="1520" type="move" name="above"/>
    </contour>
    <contour>
      <point x="315" y="0" type="move" name="below"/>
    </contour>
    <contour>
      <point x="0" y="1520" type="move" name="half"/>
    </contour>
  </outline>
</glyph>
<glyph name="uni0292" format="1">
  <advance width="1183"/>
  <unicode hex="0292"/>
  <outline>
    <contour>
      <point x="572" y="476" type="line"/>
      <point x="678" y="476"/>
      <point x="806" y="420" type="qcurve" smooth="yes"/>
      <point x="904" y="378"/>
      <point x="990" y="269" type="qcurve" smooth="yes"/>
      <point x="1071" y="165"/>
      <point x="1071" y="27" type="qcurve" smooth="yes"/>
      <point x="1071" y="-194"/>
      <point x="767" y="-436"/>
      <point x="487" y="-436" type="qcurve" smooth="yes"/>
      <point x="393" y="-436"/>
      <point x="294" y="-418" type="qcurve" smooth="yes"/>
      <point x="194" y="-399"/>
      <point x="88" y="-362" type="qcurve"/>
      <point x="88" y="-167" type="line"/>
      <point x="172" y="-216"/>
      <point x="372" y="-266"/>
      <point x="481" y="-266" type="qcurve" smooth="yes"/>
      <point x="671" y="-266"/>
      <point x="770" y="-191" type="qcurve" smooth="yes"/>
      <point x="870" y="-116"/>
      <point x="870" y="27" type="qcurve" smooth="yes"/>
      <point x="870" y="159"/>
      <point x="778" y="234" type="qcurve" smooth="yes"/>
      <point x="685" y="308"/>
      <point x="520" y="308" type="qcurve" smooth="yes"/>
      <point x="346" y="308" type="line"/>
      <point x="346" y="474" type="line"/>
      <point x="776" y="973" type="line"/>
      <point x="109" y="973" type="line"/>
      <point x="109" y="1120" type="line"/>
      <point x="983" y="1120" type="line"/>
      <point x="983" y="952" type="line"/>
    </contour>
    <contour>
      <point x="535" y="1147" type="move" name="above"/>
    </contour>
    <contour>
      <point x="535" y="-430" type="move" name="below"/>
    </contour>
    <contour>
      <point x="535" y="-430" type="move" name="cedilla"/>
    </contour>
    <contour>
      <point x="0" y="1520" type="move" name="half"/>
    </contour>
    <contour>
      <point x="535" y="-430" type="move" name="ogonek"/>
    </contour>
  </outline>
</glyph>
<glyph name="uni0308" format="1">
  <advance width="0"/>
  <unicode hex="0308"/>
  <outline>
    <contour>
      <point x="-418" y="1552" type="line"/>
      <point x="-215" y="1552" type="line"/>
      <point x="-215" y="1350" type="line"/>
      <point x="-418" y="1350" type="line"/>
    </contour>
    <contour>
      <point x="-809" y="1552" type="line"/>
      <point x="-606" y="1552" type="line"/>
      <point x="-606" y="1350" type="line"/>
      <point x="-809" y="1350" type="line"/>
    </contour>
    <contour>
      <point x="-512" y="1147" type="move"/>
    </contour>
    <contour>
      <point x="-512" y="1147" type="move" name="_above"/>
    </contour>
    <contour>
      <point x="-512" y="1282" type="move" name="_above-mark"/>
    </contour>
    <contour>
      <point x="-512" y="1556" type="move" name="above-mark"/>
    </contour>
  </outline>
</glyph>
<glyph name="uni032E" format="1">
  <advance width="0"/>
  <unicode hex="032E"/>
  <outline>
    <component base="breve" xOffset="-1032" yOffset="-1776"/>
    <contour>
      <point x="-512" y="-1" type="move" name="_Ligature below"/>
    </contour>
    <contour>
      <point x="-512" y="-1" type="move" name="_below"/>
    </contour>
    <contour>
      <point x="-512" y="0" type="move" name="_below-mark"/>
    </contour>
    <contour>
      <point x="-512" y="-456" type="move" name="below-mark"/>
    </contour>
  </outline>
</glyph>
<glyph name="uni043F" format="1">
  <advance width="1339"/>
  <unicode hex="043F"/>
  <outline>
    <contour>
      <point x="1153" y="1120" type="line"/>
      <point x="1153" y="0" type="line"/>
      <point x="968" y="0" type="line"/>
      <point x="968" y="973" type="line"/>
      <point x="371" y="973" type="line"/>
      <point x="371" y="0" type="line"/>
      <point x="186" y="0" type="line"/>
      <point x="186" y="1120" type="line"/>
    </contour>
    <contour>
      <point x="669" y="1147" type="move" name="above"/>
    </contour>
  </outline>
</glyph>
<glyph name="uni0628" format="1">
  <advance width="1928"/>
  <unicode hex="0628"/>
  <outline>
    <component base="uni066E"/>
    <component base="arabic_dot" xOffset="825" yOffset="-350"/>
    <contour>
      <point x="900" y="1000" type="move" name="rtl-above"/>
    </contour>
    <contour>
      <point x="900" y="-400" type="move" name="rtl-below"/>
    </contour>
  </outline>
</glyph>
<glyph name="uni0655" format="1">
  <advance width="0"/>
  <unicode hex="0655"/>
  <outline>
    <component base="uni0674" xOffset="213" yOffset="-1830"/>
    <contour>
      <point x="512" y="0" type="move" name="_Ligature rtl-below"/>
    </contour>
    <contour>
      <point x="512" y="0" type="move" name="_rtl-below"/>
    </contour>
    <contour>
      <point x="512" y="0" type="move" name="_rtl-below-mark"/>
    </contour>
    <contour>
      <point x="512" y="-525" type="move" name="rtl-below-mark"/>
    </contour>
  </outline>
</glyph>
<glyph name="uni07EE" format="1">
  <advance width="0"/>
  <unicode hex="07EE"/>
  <outline>
    <contour>
      <point x="436" y="1638" type="line"/>
      <point x="584" y="1638" type="line"/>
      <point x="829" y="1262" type="line"/>
      <point x="690" y="1262" type="line"/>
      <point x="510" y="1507" type="line"/>
      <point x="330" y="1262" type="line"/>
      <point x="191" y="1262" type="line"/>
    </contour>
    <contour>
      <point x="512" y="1147" type="move" name="_rtl-above"/>
    </contour>
  </outline>
</glyph>
<glyph name="uni1D04" format="1">
  <advance width="1126"/>
  <unicode hex="1D04"/>
  <outline>
    <component base="c"/>
    <contour>
      <point x="678" y="1147" type="move" name="above"/>
    </contour>
    <contour>
      <point x="678" y="0" type="move" name="below"/>
    </contour>
  </outline>
</glyph>
<glyph name="uni20DB" format="1">
  <advance width="0"/>
  <unicode hex="20DB"/>
  <outline>
    <contour>
      <point x="-1005" y="1552" type="line"/>
      <point x="-802" y="1552" type="line"/>
      <point x="-802" y="1350" type="line"/>
      <point x="-1005" y="1350" type="line"/>
    </contour>
    <contour>
      <point x="-223" y="1552" type="line"/>
      <point x="-20" y="1552" type="line"/>
      <point x="-20" y="1350" type="line"/>
      <point x="-223" y="1350" type="line"/>
    </contour>
    <contour>
      <point x="-614" y="1552" type="line"/>
      <point x="-411" y="1552" type="line"/>
      <point x="-411" y="1350" type="line"/>
      <point x="-614" y="1350" type="line"/>
    </contour>
    <contour>
      <point x="-512" y="1147" type="move"/>
    </contour>
    <contour>
      <point x="-512" y="1147" type="move" name="_above"/>
    </contour>
    <contour>
      <point x="-512" y="1282" type="move" name="_above-mark"/>
    </contour>
    <contour>
      <point x="-512" y="1556" type="move" name="above-mark"/>
    </contour>
  </outline>
</glyph>
<glyph name="uniA668" format="1">
  <advance width="1612"/>
  <unicode hex="A668"/>
  <outline>
    <component base="periodcentered" xOffset="481.500"/>
    <component base="O"/>
    <contour>
      <point x="807" y="1520" type="move" name="above"/>
    </contour>
  </outline>
</glyph>
<glyph name="uniA699" format="1">
  <advance width="2086"/>
  <unicode hex="A699"/>
  <outline>
    <component base="uniA74F"/>
    <contour>
      <point x="1043" y="1147" type="move" name="above"/>
    </contour>
    <contour>
      <point x="1043" y="0" type="move" name="below"/>
    </contour>
    <contour>
      <point x="0" y="1520" type="move" name="half"/>
    </contour>
  </outline>
</glyph>
<glyph name="uniA747" format="1">
  <advance width="803"/>
  <unicode hex="A747"/>
  <outline>
    <contour>
      <point x="193" y="668" type="line"/>
      <point x="193" y="1556" type="line"/>
      <point x="377" y="1556" type="line"/>
      <point x="377" y="793" type="line"/>
      <point x="611" y="866" type="line"/>
      <point x="611" y="0" type="line"/>
      <point x="427" y="0" type="line"/>
      <point x="427" y="741" type="line"/>
    </contour>
    <contour>
      <point x="402" y="1520" type="move" name="above"/>
    </contour>
    <contour>
      <point x="402" y="0" type="move" name="below"/>
    </contour>
    <contour>
      <point x="0" y="1520" type="move" name="half"/>
    </contour>
  </outline>
</glyph>
<glyph name="uniFB57" format="1">
  <advance width="2011"/>
  <unicode hex="FB57"/>
  <outline>
    <component base="arabic_3dots_a" xOffset="700" yOffset="-250"/>
    <component base="uni066E.fina"/>
    <contour>
      <point x="900" y="1000" type="move" name="rtl-above"/>
    </contour>
    <contour>
      <point x="900" y="-600" type="move" name="rtl-below"/>
    </contour>
  </outline>
</glyph>
<glyph name="uniFB5D" format="1">
  <advance width="618"/>
  <unicode hex="FB5D"/>
  <outline>
    <component base="uni066E.medi"/>
    <component base="arabic_4dots" xOffset="99" yOffset="-250"/>
    <contour>
      <point x="299" y="1000" type="move" name="rtl-above"/>
    </contour>
    <contour>
      <point x="299" y="-550" type="move" name="rtl-below"/>
    </contour>
  </outline>
</glyph>
<glyph name="uniFB9A" format="1">
  <advance width="1833"/>
  <unicode hex="FB9A"/>
  <outline>
    <component base="arabic_2dots" xOffset="900" yOffset="1700"/>
    <component base="uni06AF"/>
    <contour>
      <point x="500" y="1400" type="move" name="rtl-above"/>
    </contour>
    <contour>
      <point x="800" y="-150" type="move" name="rtl-below"/>
    </contour>
  </outline>
</glyph>
<glyph name="uniFE74" format="1">
  <advance width="600"/>
  <unicode hex="FE74"/>
  <outline>
    <component base="uni064D" xOffset="-212"/>
    <contour>
      <point x="300" y="1200" type="move" name="rtl-above"/>
    </contour>
    <contour>
      <point x="300" y="-500" type="move" name="rtl-below"/>
    </contour>
  </outline>
</glyph>
<glyph name="uniFE8A" format="1">
  <advance width="1707"/>
  <unicode hex="FE8A"/>
  <outline>
    <component base="uniFEF0"/>
    <component base="uni0654" xOffset="88" yOffset="-700"/>
    <contour>
      <point x="600" y="1050" type="move" name="rtl-above"/>
    </contour>
    <contour>
      <point x="700" y="-400" type="move" name="rtl-below"/>
    </contour>
  </outline>
</glyph>
<glyph name="uniFEAD" format="1">
  <advance width="989"/>
  <unicode hex="FEAD"/>
  <outline>
    <component base="uni0631"/>
    <contour>
      <point x="700" y="750" type="move" name="rtl-above"/>
    </contour>
    <contour>
      <point x="500" y="-500" type="move" name="rtl-below"/>
    </contour>
  </outline>
</glyph>
<glyph name="uniFED6" format="1">
  <advance width="1708"/>
  <unicode hex="FED6"/>
  <outline>
    <component base="uni066F.fina"/>
    <component base="arabic_2dots" xOffset="900" yOffset="875"/>
    <contour>
      <point x="500" y="850" type="move" name="rtl-above"/>
    </contour>
    <contour>
      <point x="700" y="-600" type="move" name="rtl-below"/>
    </contour>
  </outline>
</glyph>
<glyph name="uniFEEF" format="1">
  <advance width="1603"/>
  <unicode hex="FEEF"/>
  <outline>
    <component base="uni0649"/>
    <contour>
      <point x="500" y="750" type="move" name="rtl-above"/>
    </contour>
    <contour>
      <point x="700" y="-400" type="move" name="rtl-below"/>
    </contour>
  </outline>
</glyph>
<glyph name="uni064E0651" format="1">
  <advance width="0"/>
  <outline>
    <component base="uni0651" yOffset="300"/>
    <component base="uni064E"/>
    <contour>
      <point x="512" y="1200" type="move" name="_Ligature rtl-above"/>
    </contour>
    <contour>
      <point x="512" y="1200" type="move" name="_rtl-above"/>
    </contour>
    <contour>
      <point x="512" y="1200" type="move" name="_rtl-above-mark"/>
    </contour>
    <contour>
      <point x="512" y="2100" type="move" name="rtl-above-mark"/>
    </contour>
  </outline>
</glyph>
<glyph name="uni0692.fina" format="1">
  <advance width="1130"/>
  <outline>
    <component base="uni065A" xOffset="188" yOffset="-450"/>
    <component base="uniFEAE"/>
    <contour>
      <point x="700" y="1200" type="move" name="rtl-above"/>
    </contour>
    <contour>
      <point x="500" y="-500" type="move" name="rtl-below"/>
    </contour>
  </outline>
</glyph>
<glyph name="uni06AB.fina" format="1">
  <advance width="1833"/>
  <outline>
    <component base="uniFB8F"/>
    <component base="arabic_ring" xOffset="1350" yOffset="900"/>
    <contour>
      <point x="500" y="1400" type="move" name="rtl-above"/>
    </contour>
    <contour>
      <point x="800" y="-150" type="move" name="rtl-below"/>
    </contour>
  </outline>
</glyph>
<glyph name="uni06B0.fina" format="1">
  <advance width="1833"/>
  <outline>
    <component base="uniFB93"/>
    <component base="arabic_ring" xOffset="1350" yOffset="900"/>
    <contour>
      <point x="500" y="1400" type="move" name="rtl-above"/>
    </contour>
    <contour>
      <point x="800" y="-150" type="move" name="rtl-below"/>
    </contour>
  </outline>
</glyph>
<glyph name="uni07DC.medi" format="1">
  <advance width="1280"/>
  <outline>
    <contour>
      <point x="966" y="1346" type="line"/>
      <point x="314" y="1346" type="line"/>
      <point x="640" y="192" type="line"/>
    </contour>
    <contour>
      <point x="-20" y="0" type="line"/>
      <point x="-20" y="147" type="line"/>
      <point x="469" y="147" type="line"/>
      <point x="61" y="1493" type="line"/>
      <point x="1219" y="1493" type="line"/>
      <point x="811" y="147" type="line"/>
      <point x="1300" y="147" type="line"/>
      <point x="1300" y="0" type="line"/>
    </contour>
    <contour>
      <point x="640" y="1522" type="move" name="rtl-above"/>
    </contour>
    <contour>
      <point x="640" y="0" type="move" name="rtl-below"/>
    </contour>
  </outline>
</glyph>
